<!-- Generated by IcoMoon.io -->
<svg version="1.1" xmlns="http://www.w3.org/2000/svg" width="59" height="32" viewBox="0 0 59 32">
<title>0</title>
<path fill="#8e8f99" d="M24.667 7.667l2.336 2.225-4.336-0.003v10.797h11.333v-4.128l2.333 2.223v-11.115h-11.667zM33.897 16.297l-6.623-6.31h6.623v6.31zM31.841 19.108h-7.381v-7.262h0.522v6.77h6.859v0.492zM25.932 22.687l-0.275-0.566h-0.227l0.399 0.749v0.436h0.206v-0.436l0.399-0.749h-0.226l-0.275 0.566zM26.946 22.121h0.049l0.448 1.185h-0.215l-0.096-0.277h-0.459l-0.096 0.277h-0.214l0.446-1.185h0.137zM26.729 22.867h0.347l-0.174-0.503-0.173 0.503zM28.161 22.671c-0.009-0.011-0.018-0.022-0.026-0.033-0.030-0.040-0.054-0.079-0.071-0.116s-0.025-0.077-0.025-0.117c0-0.062 0.013-0.115 0.038-0.16s0.062-0.079 0.108-0.103c0.047-0.024 0.101-0.037 0.164-0.037 0.060 0 0.112 0.012 0.155 0.037s0.078 0.056 0.101 0.095c0.024 0.040 0.036 0.083 0.036 0.13 0 0.037-0.007 0.072-0.020 0.103s-0.032 0.059-0.056 0.085c-0.024 0.026-0.052 0.050-0.083 0.072l-0.082 0.060 0.235 0.277c0.008-0.015 0.015-0.031 0.021-0.048 0.020-0.052 0.030-0.11 0.030-0.173h0.169c0 0.058-0.006 0.112-0.017 0.164s-0.028 0.099-0.053 0.143c-0.010 0.018-0.021 0.036-0.034 0.052l0.174 0.205h-0.227l-0.069-0.081c-0.037 0.028-0.078 0.050-0.122 0.066-0.058 0.021-0.119 0.031-0.184 0.031-0.079 0-0.147-0.014-0.204-0.043s-0.102-0.068-0.133-0.119c-0.031-0.050-0.046-0.108-0.046-0.173 0-0.048 0.010-0.091 0.030-0.127s0.047-0.071 0.082-0.103c0.032-0.029 0.069-0.058 0.11-0.087zM28.258 22.79l-0.025 0.018c-0.029 0.023-0.050 0.046-0.064 0.068s-0.023 0.041-0.027 0.059c-0.004 0.018-0.007 0.034-0.007 0.047 0 0.035 0.007 0.066 0.022 0.094s0.037 0.051 0.066 0.068c0.029 0.016 0.065 0.024 0.107 0.024 0.045 0 0.089-0.010 0.131-0.030 0.021-0.010 0.041-0.023 0.060-0.037l-0.264-0.31zM28.305 22.573l0.073-0.049c0.034-0.023 0.059-0.045 0.073-0.067s0.022-0.050 0.022-0.083c0-0.028-0.011-0.054-0.033-0.078s-0.052-0.036-0.092-0.036c-0.028 0-0.051 0.006-0.070 0.020s-0.033 0.029-0.043 0.050c-0.009 0.021-0.014 0.044-0.014 0.069 0 0.024 0.006 0.050 0.019 0.076s0.030 0.052 0.051 0.081c0.004 0.006 0.009 0.011 0.014 0.017zM30.378 22.921h-0.203c-0.006 0.052-0.018 0.095-0.037 0.131s-0.046 0.062-0.082 0.081c-0.036 0.018-0.083 0.028-0.141 0.028-0.048 0-0.089-0.009-0.123-0.029s-0.062-0.046-0.085-0.081c-0.022-0.035-0.038-0.076-0.049-0.125s-0.015-0.103-0.015-0.163v-0.1c0-0.063 0.006-0.119 0.017-0.168s0.030-0.091 0.053-0.125c0.023-0.034 0.052-0.059 0.087-0.076s0.075-0.026 0.122-0.026c0.057 0 0.103 0.010 0.138 0.029s0.062 0.047 0.080 0.083c0.018 0.036 0.030 0.080 0.036 0.131h0.203c-0.008-0.079-0.030-0.149-0.067-0.211s-0.086-0.109-0.151-0.144c-0.065-0.035-0.145-0.052-0.239-0.052-0.074 0-0.141 0.013-0.201 0.039s-0.11 0.064-0.152 0.113c-0.042 0.049-0.075 0.108-0.098 0.177s-0.033 0.146-0.033 0.231v0.098c0 0.085 0.011 0.162 0.033 0.231s0.054 0.128 0.096 0.177c0.042 0.048 0.092 0.086 0.151 0.112s0.125 0.039 0.198 0.039c0.096 0 0.177-0.017 0.243-0.052s0.119-0.082 0.155-0.142c0.037-0.061 0.059-0.13 0.065-0.208zM31.508 22.746v-0.065c0-0.090-0.012-0.17-0.036-0.24s-0.057-0.132-0.1-0.181c-0.043-0.050-0.095-0.089-0.155-0.115s-0.127-0.040-0.2-0.040c-0.073 0-0.139 0.013-0.199 0.040s-0.111 0.064-0.155 0.115c-0.043 0.050-0.077 0.11-0.101 0.181s-0.036 0.151-0.036 0.24v0.065c0 0.090 0.012 0.17 0.036 0.241s0.059 0.132 0.103 0.181c0.044 0.050 0.096 0.088 0.155 0.115s0.127 0.039 0.199 0.039c0.073 0 0.14-0.013 0.2-0.039s0.112-0.065 0.155-0.115c0.043-0.050 0.077-0.11 0.1-0.181s0.035-0.151 0.035-0.241zM31.304 22.68v0.067c0 0.066-0.006 0.125-0.020 0.176s-0.031 0.094-0.055 0.129c-0.024 0.035-0.054 0.061-0.090 0.079s-0.076 0.026-0.121 0.026c-0.045 0-0.085-0.009-0.12-0.026s-0.066-0.044-0.091-0.079c-0.025-0.035-0.044-0.078-0.057-0.129s-0.020-0.11-0.020-0.176v-0.067c0-0.066 0.007-0.125 0.020-0.175s0.032-0.094 0.056-0.128c0.025-0.035 0.055-0.061 0.090-0.078s0.075-0.027 0.12-0.027 0.085 0.009 0.121 0.027c0.036 0.017 0.066 0.043 0.090 0.078s0.044 0.077 0.056 0.128c0.013 0.050 0.020 0.109 0.020 0.175z"></path>
</svg>
